<svg xmlns="http://www.w3.org/2000/svg" width="64" height="64" viewBox="0 0 16 16"
    shape-rendering="crispEdges">
    <rect width="16" height="16" fill="#3B82F6" />
    <rect x="5" y="2" width="6" height="5" fill="#FDE68A" />
    <rect x="4" y="3" width="1" height="3" fill="#FDE68A" />
    <rect x="11" y="3" width="1" height="3" fill="#FDE68A" />
    <rect x="6" y="4" width="1" height="1" fill="#1E3A5F" />
    <rect x="9" y="4" width="1" height="1" fill="#1E3A5F" />
    <rect x="7" y="6" width="2" height="1" fill="#1E3A5F" />
    <rect x="5" y="1" width="6" height="1" fill="#4B5563" />
    <rect x="4" y="2" width="1" height="2" fill="#4B5563" />
    <rect x="11" y="2" width="1" height="2" fill="#4B5563" />
    <rect x="6" y="8" width="4" height="1" fill="#FDE68A" />
    <rect x="4" y="9" width="8" height="5" fill="#2563EB" />
    <rect x="7" y="9" width="2" height="3" fill="#DBEAFE" />
    <rect x="4" y="14" width="3" height="2" fill="#1E3A5F" />
    <rect x="9" y="14" width="3" height="2" fill="#1E3A5F" />
</svg>